:version 1.10
:name ASF
:units
  mass 1
  length 1
  angle deg
:documentation
  ASF file generated by Kaydara
:root
  axis xyz
  order  tx ty tz rx ry rz
  position 0 0 0
  orientation 0 0 0
:bonedata
  begin
    id 1
    name RightUpLegDummy
    direction -0.65628 -0.754516 0.00165102
    length 4.76918
    axis 0 0 0 xyz
  end
  begin
    id 2
    name RightUpLeg
    direction -0.145584 -0.923362 0.355256
    length 17.9961
    axis -24.7611 -13.1006 1.78531 xyz
    dof rx ry rz
  end
  begin
    id 3
    name RightLeg
    direction 0.263379 0.172355 -0.949171
    length 13.3386
    axis 89.6202 -21.1929 12.3855 xyz
    dof rx ry rz
  end
  begin
    id 4
    name RightFoot
    direction 0.224283 -0.968777 -0.105675
    length 5.86697
    axis 56.995 -39.6905 17.3365 xyz
    dof rx ry rz
  end
  begin
    id 5
    name RightToes
    direction -0.0806345 -0.9037 0.420506
    length 4.75197
    axis 146.825 -39.7828 17.6019 xyz
    dof rx ry rz
  end
  begin
    id 6
    name SpineDummy
    direction -3.39852e-014 1 9.33296e-014
    length 8.13779
    axis 0 0 0 xyz
  end
  begin
    id 7
    name Spine
    direction -0.156609 0.733703 0.661176
    length 7.14978
    axis 41.2365 5.68757 17.0844 xyz
    dof rx ry rz
  end
  begin
    id 8
    name Spine1
    direction 0 0 0
    length 0
    axis 42.8809 47.8308 -3.36039 xyz
    dof rx ry rz
  end
  begin
    id 9
    name HEadDummy
    direction 0.546431 0.701947 0.456819
    length 3.55512
    axis 42.8809 47.8308 -3.36039 xyz
  end
  begin
    id 10
    name HEad
    direction 0.23444 0.828559 0.508457
    length 7.35827
    axis 51.1864 49.2662 27.4903 xyz
    dof rx ry rz
  end
  begin
    id 11
    name LeftShoulder1Dummy
    direction 0.431183 0.475873 -0.766568
    length 2.49352
    axis 42.8809 47.8308 -3.36039 xyz
  end
  begin
    id 12
    name LeftShoulder1
    direction 0.268187 -0.383402 -0.883786
    length 4.48604
    axis -119.517 0.106469 35.1736 xyz
    dof rx ry rz
  end
  begin
    id 13
    name LeftArm
    direction 0.380567 -0.703221 -0.600541
    length 10.1142
    axis -5.41825 36.2925 7.8293 xyz
    dof rx ry rz
  end
  begin
    id 14
    name LeftForeArm
    direction 0.541071 -0.732356 -0.413396
    length 9.39839
    axis 4.65387 33.7604 7.81644 xyz
    dof rx ry rz
  end
  begin
    id 15
    name LeftHand
    direction 0.847511 -0.389379 -0.360707
    length 3.66142
    axis 7.65593 21.1436 -24.6758 xyz
    dof rx ry rz
  end
  begin
    id 16
    name RightShoulderDummy
    direction -0.692546 0.541855 0.476208
    length 2.49352
    axis 42.8809 47.8308 -3.36039 xyz
  end
  begin
    id 17
    name RightShoulder
    direction -0.870808 -0.316653 0.376065
    length 4.48602
    axis 141.571 51.133 -100.254 xyz
    dof rx ry rz
  end
  begin
    id 18
    name RightArm
    direction 0.366897 -0.87275 0.322015
    length 10.1142
    axis 92.3258 71.2036 138.917 xyz
    dof rx ry rz
  end
  begin
    id 19
    name RightForeArm
    direction 0.702487 -0.694568 0.155197
    length 9.39835
    axis 153.863 41.5092 -176.604 xyz
    dof rx ry rz
  end
  begin
    id 20
    name RightHand
    direction 0.79502 -0.601276 0.0800636
    length 3.66142
    axis 154.247 4.59222 142.9 xyz
    dof rx ry rz
  end
  begin
    id 21
    name LeftUpLegDummy
    direction 0.65628 -0.754516 0.00165102
    length 4.76919
    axis 0 0 0 xyz
  end
  begin
    id 22
    name LeftUpLeg
    direction -0.1277 -0.689368 0.713067
    length 17.9961
    axis -48.3385 -17.8675 0.791927 xyz
    dof rx ry rz
  end
  begin
    id 23
    name LeftLeg
    direction 0.109849 -0.991246 -0.0732378
    length 13.3386
    axis -2.05791 -7.30784 1.72042 xyz
    dof rx ry rz
  end
  begin
    id 24
    name LeftFoot
    direction 0.0448355 -0.272614 0.961078
    length 5.86697
    axis -18.7733 -7.89606 10.2113 xyz
    dof rx ry rz
  end
  begin
    id 25
    name LeftToes
    direction -0.18506 0.293668 0.937823
    length 4.75197
    axis 71.2267 -7.89606 10.2113 xyz
    dof rx ry rz
  end
:hierarchy
  begin
    root RightUpLegDummy SpineDummy LeftUpLegDummy
    RightUpLegDummy RightUpLeg
    RightUpLeg RightLeg
    RightLeg RightFoot
    RightFoot RightToes
    SpineDummy Spine
    Spine Spine1
    Spine1 HEadDummy LeftShoulder1Dummy RightShoulderDummy
    HEadDummy HEad
    LeftShoulder1Dummy LeftShoulder1
    LeftShoulder1 LeftArm
    LeftArm LeftForeArm
    LeftForeArm LeftHand
    RightShoulderDummy RightShoulder
    RightShoulder RightArm
    RightArm RightForeArm
    RightForeArm RightHand
    LeftUpLegDummy LeftUpLeg
    LeftUpLeg LeftLeg
    LeftLeg LeftFoot
    LeftFoot LeftToes
  end

:SAMPLES-PER-SECOND 30
:FULLY-SPECIFIED
:DEGREES
563
root  -3.21446 29.3193 -26.2034 77.0617 62.7154 100.167
RightUpLeg  11.9411 11.2015 -26.3596
RightLeg  -19.5367 -49.8937 4.42932
RightFoot  5.45356 -7.52463 11.666
RightToes  -1.27222e-014 -6.36111e-015 6.36111e-015
Spine  -23.4422 2.14144 8.34859
Spine1  -0.256489 -8.78659 6.33179
HEad  19.5154 -14.0083 -22.9975
LeftShoulder1  6.36111e-015 -1.33558e-015 6.49777e-015
LeftArm  61.0381 15.4962 5.67392
LeftForeArm  0.879765 -13.4531 -5.86173
LeftHand  -2.18596 -3.43208 -17.5727
RightShoulder  -4.77083e-015 -6.36111e-015 -3.18055e-015
RightArm  50.7436 12.405 -74.5098
RightForeArm  -51.5857 2.05583 -22.465
RightHand  2.40611 -1.85555 -13.9417
LeftUpLeg  9.60479 25.544 1.02807
LeftLeg  5.70043 -18.2868 -3.4478
LeftFoot  20.9712 10.5498 -20.7254
LeftToes  1.27222e-014 -5.20697e-012 1.80337e-011
564
root  -3.04663 27.9608 -25.321 112.432 56.8596 133.219
RightUpLeg  16.4607 1.82391 -28.2105
RightLeg  -9.98138 -45.0468 -1.3141
RightFoot  2.72427 -6.00073 10.825
RightToes  -1.27222e-014 -6.36111e-015 6.36111e-015
Spine  -24.5629 0.242788 6.98703
Spine1  1.16868 -9.08858 7.4783
HEad  19.349 -16.3339 -21.1767
LeftShoulder1  6.36111e-015 -1.33558e-015 6.49777e-015
LeftArm  55.2724 9.03147 4.89595
LeftForeArm  -5.71938 -13.2012 -2.3595
LeftHand  -1.51876 -1.81421 -12.6178
RightShoulder  -4.77083e-015 -6.36111e-015 -3.18055e-015
RightArm  57.1361 13.7763 -80.9783
RightForeArm  -51.3751 5.68804 -27.2626
RightHand  3.78601 -5.16803 -16.064
LeftUpLeg  1.68262 28.5198 -4.74294
LeftLeg  7.35985 -23.1399 -4.91809
LeftFoot  24.1212 11.6183 -21.3618
LeftToes  1.27222e-014 -5.20697e-012 1.80337e-011
565
root  -2.75683 26.4695 -24.5688 129.141 47.7469 148.158
RightUpLeg  21.1674 -6.34859 -30.0934
RightLeg  -3.45654 -39.4597 -4.18513
RightFoot  -4.58527 -3.66206 11.8486
RightToes  -1.27222e-014 -6.36111e-015 6.36111e-015
Spine  -23.8761 -0.39616 7.27404
Spine1  3.00732 -8.96902 9.04698
HEad  18.4109 -18.3758 -21.4556
LeftShoulder1  6.36111e-015 -1.33558e-015 6.49777e-015
LeftArm  48.2224 8.24259 9.93856
LeftForeArm  -9.26625 -19.406 -0.519688
LeftHand  -1.99939 -4.03757 -9.70494
RightShoulder  -4.77083e-015 -6.36111e-015 -3.18055e-015
RightArm  62.7 13.2483 -85.5706
RightForeArm  -44.8743 7.34697 -27.5694
RightHand  5.443 -7.86282 -19.8309
LeftUpLeg  -6.06414 34.8494 -8.87603
LeftLeg  10.4501 -21.5778 -5.442
LeftFoot  27.0232 13.059 -22.6202
LeftToes  1.27222e-014 -5.20697e-012 1.80337e-011
566
root  -2.40393 25.2124 -23.9059 137.165 40.7583 153.986
RightUpLeg  23.8138 -11.856 -29.6483
RightLeg  1.22726 -34.2966 -5.32931
RightFoot  -10.5624 -1.89303 13.1425
RightToes  -1.27222e-014 -6.36111e-015 6.36111e-015
Spine  -23.1489 -0.0390166 7.91165
Spine1  4.12226 -8.39533 11.5523
HEad  18.1162 -18.7933 -21.9351
LeftShoulder1  6.36111e-015 -1.33558e-015 6.49777e-015
LeftArm  47.0419 11.0655 14.4534
LeftForeArm  -11.0492 -26.4823 1.38009
LeftHand  -2.00962 -4.20446 -8.72236
RightShoulder  -4.77083e-015 -6.36111e-015 -3.18055e-015
RightArm  67.9331 11.4437 -84.484
RightForeArm  -31.8273 5.99787 -21.8745
RightHand  5.71694 -8.29644 -20.3835
LeftUpLeg  -13.0095 40.4687 -13.1127
LeftLeg  12.8202 -18.3802 -5.0839
LeftFoot  28.1986 11.6774 -19.8219
LeftToes  1.27222e-014 -5.20697e-012 1.80337e-011
567
root  -2.10698 24.2347 -23.2392 141.228 35.5593 155.249
RightUpLeg  23.5574 -14.2509 -28.0571
RightLeg  5.69404 -28.2954 -5.39123
RightFoot  -13.1708 -0.479642 11.8211
RightToes  -1.27222e-014 -6.36111e-015 6.36111e-015
Spine  -21.765 0.0439837 7.92544
Spine1  3.34334 -7.93354 14.7389
HEad  18.0112 -18.7721 -22.0407
LeftShoulder1  6.36111e-015 -1.33558e-015 6.49777e-015
LeftArm  51.7157 14.0117 17.2658
LeftForeArm  -9.7339 -30.9106 2.41768
LeftHand  -1.04387 -1.40593 -7.15178
RightShoulder  -4.77083e-015 -6.36111e-015 -3.18055e-015
RightArm  72.6188 8.2437 -79.1963
RightForeArm  -18.4125 -0.655997 -13.1759
RightHand  4.56615 -6.48039 -17.8915
LeftUpLeg  -18.6964 43.5732 -16.894
LeftLeg  14.7276 -21.0144 -6.49007
LeftFoot  27.7261 12.4587 -21.3121
LeftToes  1.27222e-014 -5.20697e-012 1.80337e-011
568
root  -1.8895 23.1076 -22.5799 141.293 32.5662 152.616
RightUpLeg  22.8295 -14.1071 -28.3765
RightLeg  10.8607 -23.4341 -4.94492
RightFoot  -16.6812 1.68685 8.59864
RightToes  -1.27222e-014 -6.36111e-015 6.36111e-015
Spine  -17.7707 -0.0517988 7.6632
Spine1  1.97431 -7.36199 16.3865
HEad  16.4825 -20.4747 -22.6286
LeftShoulder1  6.36111e-015 -1.33558e-015 6.49777e-015
LeftArm  57.4369 16.0242 19.0734
LeftForeArm  -7.31064 -29.541 1.43789
LeftHand  0.10487 1.42702 -4.64034
RightShoulder  -4.77083e-015 -6.36111e-015 -3.18055e-015
RightArm  76.1742 3.64299 -74.7904
RightForeArm  -10.7571 -12.0106 -6.2312
RightHand  4.13405 -5.34789 -17.6035
LeftUpLeg  -23.0899 45.5919 -18.2766
LeftLeg  16.1824 -23.139 -7.73064
LeftFoot  23.4675 18.5962 -34.1366
LeftToes  1.27222e-014 -5.20697e-012 1.80337e-011
569
root  -1.84403 21.7748 -21.8048 138.123 31.6853 146.07
RightUpLeg  20.4515 -14.257 -30.4534
RightLeg  17.5719 -24.4248 -6.36315
RightFoot  -21.7472 3.46308 7.82423
RightToes  -1.27222e-014 -6.36111e-015 6.36111e-015
Spine  -11.4211 -0.161328 7.5727
Spine1  1.84004 -6.22347 15.2281
HEad  13.3449 -24.0868 -23.9589
LeftShoulder1  6.36111e-015 -1.33558e-015 6.49777e-015
LeftArm  60.2581 17.5069 22.8577
LeftForeArm  -7.00136 -24.2224 0.132427
LeftHand  0.96819 3.29316 -2.71385
RightShoulder  -4.77083e-015 -6.36111e-015 -3.18055e-015
RightArm  76.5454 -0.59147 -78.0262
RightForeArm  -7.44075 -19.2842 -2.1406
RightHand  5.07936 -6.56661 -20.2767
LeftUpLeg  -27.2226 47.928 -17.7069
LeftLeg  14.48 -18.5836 -5.56982
LeftFoot  17.6697 24.7869 -50.0477
LeftToes  1.27222e-014 -5.20697e-012 1.80337e-011
570
root  -1.90521 20.6271 -20.7564 135.085 30.3599 137.565
RightUpLeg  13.3726 -17.3705 -30.517
RightLeg  25.6546 -30.8305 -11.9247
RightFoot  -24.1478 3.14364 12.8624
RightToes  -1.27222e-014 -6.36111e-015 6.36111e-015
Spine  -4.76584 -1.17727 7.0933
Spine1  2.60878 -5.10998 12.8523
HEad  11.0032 -27.5479 -25.5754
LeftShoulder1  6.36111e-015 -1.33558e-015 6.49777e-015
LeftArm  59.3563 18.6649 29.9894
LeftForeArm  -7.76981 -22.1877 -0.156994
LeftHand  1.74684 4.98408 -1.45916
RightShoulder  -4.77083e-015 -6.36111e-015 -3.18055e-015
RightArm  79.4029 -5.24478 -80.9813
RightForeArm  -9.4046 -26.0276 -2.08135
RightHand  6.39517 -7.94239 -24.0328
LeftUpLeg  -31.0992 48.1494 -17.0208
LeftLeg  9.47643 -15.4794 -3.55077
LeftFoot  15.7078 26.6414 -55.4895
LeftToes  1.27222e-014 -5.20697e-012 1.80337e-011
571
root  -1.80706 19.8481 -19.5704 134.924 26.5835 130.611
RightUpLeg  3.23978 -21.1999 -27.5403
RightLeg  32.726 -36.1684 -18.6088
RightFoot  -22.6281 0.926027 20.1058
RightToes  -1.27222e-014 -6.36111e-015 6.36111e-015
Spine  -0.131937 -3.09384 6.79954
Spine1  3.11371 -5.13184 11.6516
HEad  11.6058 -29.2188 -27.8174
LeftShoulder1  6.36111e-015 -1.33558e-015 6.49777e-015
LeftArm  55.669 19.2927 35.4902
LeftForeArm  -9.23481 -25.1113 0.710147
LeftHand  2.3618 6.02388 0.11019
RightShoulder  -4.77083e-015 -6.36111e-015 -3.18055e-015
RightArm  80.9978 -8.7998 -83.478
RightForeArm  -12.9145 -31.463 -2.79322
RightHand  7.43799 -8.0951 -28.3471
LeftUpLeg  -32.8674 43.5528 -16.2545
LeftLeg  3.35355 -20.3516 -3.35032
LeftFoot  16.4252 23.6402 -49.1494
LeftToes  1.27222e-014 -5.20697e-012 1.80337e-011
572
root  -1.41607 19.338 -18.373 136.638 21.1283 125.679
RightUpLeg  -5.87084 -22.7624 -24.5466
RightLeg  36.0405 -38.0508 -21.8672
RightFoot  -20.615 -1.09064 24.4342
RightToes  -1.27222e-014 -6.36111e-015 6.36111e-015
Spine  1.67703 -5.1005 6.7377
Spine1  4.02471 -6.09514 12.4771
HEad  13.995 -29.5917 -30.2824
LeftShoulder1  6.36111e-015 -1.33558e-015 6.49777e-015
LeftArm  49.1362 18.7139 35.5262
LeftForeArm  -11.7982 -29.3769 2.40165
LeftHand  2.54211 5.85703 1.81285
RightShoulder  -4.77083e-015 -6.36111e-015 -3.18055e-015
RightArm  78.9019 -10.466 -87.2048
RightForeArm  -15.7821 -34.5542 -4.33738
RightHand  9.72715 -9.42136 -35.1733
LeftUpLeg  -32.1689 36.9322 -14.3157
LeftLeg  -1.26629 -24.1841 -2.55079
LeftFoot  19.449 18.4548 -36.7185
LeftToes  1.27222e-014 -5.20697e-012 1.80337e-011
573
root  -0.723782 18.8487 -17.3525 138.251 16.0371 121.171
RightUpLeg  -12.1993 -23.4401 -22.4951
RightLeg  37.4932 -40.5942 -24.8193
RightFoot  -19.6629 -2.04183 26.1718
RightToes  -1.27222e-014 -6.36111e-015 6.36111e-015
Spine  1.21238 -7.01273 5.20536
Spine1  5.80352 -7.32066 15.2707
HEad  14.917 -30.6432 -30.608
LeftShoulder1  6.36111e-015 -1.33558e-015 6.49777e-015
LeftArm  40.1669 17.242 33.6659
LeftForeArm  -15.7481 -35.0449 5.54264
LeftHand  2.68693 5.88068 2.74139
RightShoulder  -4.77083e-015 -6.36111e-015 -3.18055e-015
RightArm  71.6441 -10.3335 -100.538
RightForeArm  -15.5406 -23.8314 -5.75171
RightHand  14.8516 -12.5748 -46.7217
LeftUpLeg  -28.6425 32.2404 -9.97139
LeftLeg  -2.67528 -20.7084 -1.95272
LeftFoot  20.7118 14.7849 -28.9377
LeftToes  1.27222e-014 -5.20697e-012 1.80337e-011
